<?xml version="1.0" encoding="utf-8"?>
<svg version="1.1" xmlns:xlink="http://www.w3.org/1999/xlink" width="23px" height="27px" xmlns="http://www.w3.org/2000/svg">
  <g transform="matrix(1 0 0 1 -734 -307 )">
    <path d="M 11.5 25.7946428571429  C 11.6474358974359 25.7946428571429  11.7211538461538 25.7142857142857  11.7211538461538 25.5535714285714  C 11.7211538461538 25.3928571428571  11.6474358974359 25.3125  11.5 25.3125  C 10.9563301282051 25.3125  10.4886818910256 25.0990513392857  10.0970552884615 24.6721540178571  C 9.70542868589744 24.2452566964286  9.50961538461538 23.7354910714286  9.50961538461538 23.1428571428571  C 9.50961538461538 22.9821428571429  9.43589743589744 22.9017857142857  9.28846153846154 22.9017857142857  C 9.14102564102564 22.9017857142857  9.06730769230769 22.9821428571429  9.06730769230769 23.1428571428571  C 9.06730769230769 23.8761160714286  9.30458733974359 24.5013950892857  9.77914663461538 25.0186941964286  C 10.2537059294872 25.5359933035714  10.8273237179487 25.7946428571429  11.5 25.7946428571429  Z M 6.19230769230769 8.67857142857143  C 6.19230769230769 14.0223214285714  4.96674679487179 18.2008928571429  2.515625 21  L 20.484375 21  C 18.0332532051282 18.2008928571429  16.8076923076923 14.0223214285714  16.8076923076923 8.67857142857143  C 16.8076923076923 8.16629464285714  16.6971153846154 7.63895089285714  16.4759615384615 7.09654017857143  C 16.2548076923077 6.55412946428571  15.9368990384615 6.03683035714285  15.5222355769231 5.54464285714286  C 15.1075721153846 5.05245535714286  14.5477764423077 4.64815848214286  13.8428485576923 4.33175223214286  C 13.1379206730769 4.01534598214286  12.3569711538462 3.85714285714286  11.5 3.85714285714286  C 10.6430288461538 3.85714285714286  9.86207932692308 4.01534598214286  9.15715144230769 4.33175223214286  C 8.45222355769231 4.64815848214286  7.89242788461538 5.05245535714286  7.47776442307692 5.54464285714286  C 7.06310096153846 6.03683035714285  6.74519230769231 6.55412946428571  6.52403846153846 7.09654017857143  C 6.30288461538462 7.63895089285714  6.19230769230769 8.16629464285714  6.19230769230769 8.67857142857143  Z M 21.7421875 19.8883928571429  C 22.1199919871795 20.3504464285714  22.5392628205128 20.7924107142857  23 21.2142857142857  C 23 21.7366071428571  22.8249198717949 22.1886160714286  22.4747596153846 22.5703125  C 22.1245993589744 22.9520089285714  21.7099358974359 23.1428571428571  21.2307692307692 23.1428571428571  L 15.0384615384615 23.1428571428571  C 15.0384615384615 24.2075892857143  14.6929086538462 25.1166294642857  14.0018028846154 25.8699776785714  C 13.3106971153846 26.6233258928571  12.4767628205128 27  11.5 27  C 10.5232371794872 27  9.68930288461538 26.6233258928571  8.99819711538462 25.8699776785714  C 8.30709134615385 25.1166294642857  7.96153846153846 24.2075892857143  7.96153846153846 23.1428571428571  L 1.76923076923077 23.1428571428571  C 1.2900641025641 23.1428571428571  0.875400641025641 22.9520089285714  0.525240384615385 22.5703125  C 0.175080128205128 22.1886160714286  0 21.7366071428571  0 21.2142857142857  C 0.46073717948718 20.7924107142857  0.880008012820513 20.3504464285714  1.2578125 19.8883928571429  C 1.63561698717949 19.4263392857143  2.02724358974359 18.826171875  2.43269230769231 18.087890625  C 2.83814102564103 17.349609375  3.18139022435897 16.5535714285714  3.46243990384615 15.6997767857143  C 3.74348958333333 14.8459821428571  3.97385817307692 13.8113839285714  4.15354567307692 12.5959821428571  C 4.33323317307692 11.3805803571429  4.42307692307692 10.0747767857143  4.42307692307692 8.67857142857143  C 4.42307692307692 7.15178571428571  4.96213942307692 5.73297991071429  6.04026442307692 4.42215401785714  C 7.11838942307692 3.111328125  8.53285256410256 2.31529017857143  10.2836538461538 2.03404017857143  C 10.2099358974359 1.84319196428571  10.1730769230769 1.64732142857143  10.1730769230769 1.44642857142857  C 10.1730769230769 1.04464285714286  10.3020833333333 0.703124999999999  10.5600961538462 0.421875  C 10.818108974359 0.140625000000001  11.1314102564103 0  11.5 0  C 11.8685897435897 0  12.181891025641 0.140625000000001  12.4399038461538 0.421875  C 12.6979166666667 0.703124999999999  12.8269230769231 1.04464285714286  12.8269230769231 1.44642857142857  C 12.8269230769231 1.64732142857143  12.7900641025641 1.84319196428571  12.7163461538462 2.03404017857143  C 14.4671474358974 2.31529017857143  15.8816105769231 3.111328125  16.9597355769231 4.42215401785714  C 18.0378605769231 5.73297991071429  18.5769230769231 7.15178571428571  18.5769230769231 8.67857142857143  C 18.5769230769231 10.0747767857143  18.6667668269231 11.3805803571429  18.8464543269231 12.5959821428571  C 19.0261418269231 13.8113839285714  19.2565104166667 14.8459821428571  19.5375600961538 15.6997767857143  C 19.818609775641 16.5535714285714  20.161858974359 17.349609375  20.5673076923077 18.087890625  C 20.9727564102564 18.826171875  21.3643830128205 19.4263392857143  21.7421875 19.8883928571429  Z " fill-rule="nonzero" fill="#000000" stroke="none" transform="matrix(1 0 0 1 734 307 )" />
  </g>
</svg>