<?xml version="1.0" encoding="utf-8"?>
<svg version="1.1" xmlns:xlink="http://www.w3.org/1999/xlink" width="351px" height="130px" xmlns="http://www.w3.org/2000/svg">
  <g transform="matrix(1 0 0 1 -413 -350 )">
    <path d="M 413 350  L 764 350  L 764 480  L 413 480  L 413 350  " fill-rule="nonzero" fill="#cccccc" stroke="none" />
    <path d="M 422 359  L 755 359  L 755 471  L 422 471  L 422 359  " fill-rule="nonzero" fill="#ffffff" stroke="none" />
    <path d="M 605.27 389  C 599.81 389  595.52 384.71  595.52 379.25  C 595.52 373.79  599.81 369.5  605.27 369.5  C 610.73 369.5  615.02 373.79  615.02 379.25  C 615.02 384.71  610.73 389  605.27 389  " fill-rule="nonzero" fill="#cccccc" stroke="none" />
    <path d="M 426 468  L 426 410.25  L 507.5 384  L 621.6 444.666666666667  L 686.8 399.75  L 752 444.666666666667  L 752 468  L 426 468  " fill-rule="nonzero" fill="#169bd5" stroke="none" />
  </g>
</svg>