<?xml version="1.0" encoding="utf-8"?>
<svg version="1.1" xmlns:xlink="http://www.w3.org/1999/xlink" width="58px" height="65px" xmlns="http://www.w3.org/2000/svg">
  <g transform="matrix(1 0 0 1 -1752 -2703 )">
    <path d="M 1752 2703  L 1810 2703  L 1810 2768  L 1752 2768  L 1752 2703  " fill-rule="nonzero" fill="#cccccc" stroke="none" />
    <path d="M 1756 2707  L 1806 2707  L 1806 2764  L 1756 2764  L 1756 2707  " fill-rule="nonzero" fill="#ffffff" stroke="none" />
    <path d="M 1786.51 2721.45  C 1784.074 2721.45  1782.16 2719.536  1782.16 2717.1  C 1782.16 2714.664  1784.074 2712.75  1786.51 2712.75  C 1788.946 2712.75  1790.86 2714.664  1790.86 2717.1  C 1790.86 2719.536  1788.946 2721.45  1786.51 2721.45  " fill-rule="nonzero" fill="#cccccc" stroke="none" />
    <path d="M 1758 2763  L 1758 2733.3  L 1769.75 2719.8  L 1786.2 2730.6  L 1795.6 2727.9  L 1805 2730.6  L 1805 2763  L 1758 2763  " fill-rule="nonzero" fill="#169bd5" stroke="none" />
  </g>
</svg>