<?xml version="1.0" encoding="utf-8"?>
<svg version="1.1" xmlns:xlink="http://www.w3.org/1999/xlink" width="10px" height="17px" xmlns="http://www.w3.org/2000/svg">
  <g transform="matrix(1 0 0 1 -1838 -2882 )">
    <path d="M 9.82817869415811 8.89178356713429  C 9.94272623138602 8.77822311289246  10 8.64762859051435  10 8.50000000000001  C 10 8.35237140948565  9.94272623138602 8.22177688710754  9.82817869415811 8.10821643286572  L 1.82130584192436 0.170340681362733  C 1.70675830469645 0.0567802271209117  1.57502863688433 0  1.42611683848799 0  C 1.27720504009164 0  1.14547537227952 0.0567802271209117  1.03092783505156 0.170340681362733  L 0.171821305841888 1.02204408817637  C 0.0572737686139817 1.13560454241816  0 1.26619906479624  0 1.41382765531064  C 0 1.56145624582498  0.0572737686139817 1.69205076820309  0.171821305841888 1.80561122244488  L 6.92439862542955 8.50000000000001  L 0.171821305841888 15.1943887775551  C 0.0572737686139817 15.3079492317969  0 15.438543754175  0 15.5861723446894  C 0 15.7338009352038  0.0572737686139817 15.8643954575818  0.171821305841888 15.9779559118237  L 1.03092783505156 16.8296593186373  C 1.14547537227952 16.9432197728791  1.27720504009164 17  1.42611683848799 17  C 1.57502863688433 17  1.70675830469645 16.9432197728791  1.82130584192436 16.8296593186373  L 9.82817869415811 8.89178356713429  Z " fill-rule="nonzero" fill="#cccccc" stroke="none" transform="matrix(1 0 0 1 1838 2882 )" />
  </g>
</svg>