<?xml version="1.0" encoding="utf-8"?>
<svg version="1.1" xmlns:xlink="http://www.w3.org/1999/xlink" width="7px" height="8px" xmlns="http://www.w3.org/2000/svg">
  <g transform="matrix(1 0 0 1 -1922 -2893 )">
    <path d="M 4.26338851022395 7.94602272727273  C 4.22022070756248 7.98200757575758  4.16910094125284 8  4.11002921129503 8  L 2.93768257059396 8  C 2.87861084063616 8  2.82749107432652 7.98295454545455  2.78432327166504 7.94886363636364  C 2.74115546900357 7.91477272727273  2.71957156767283 7.87121212121212  2.71957156767283 7.81818181818182  L 2.71957156767283 5.94318181818182  L 0.756572541382668 5.94318181818182  C 0.697500811424862 5.94318181818182  0.646381045115222 5.92613636363636  0.603213242453749 5.89204545454546  C 0.560045439792275 5.85795454545455  0.538461538461539 5.81439393939394  0.538461538461539 5.76136363636364  L 0.538461538461539 5.17613636363636  C 0.538461538461539 5.12689393939394  0.560045439792275 5.0842803030303  0.603213242453749 5.04829545454546  C 0.646381045115222 5.01231060606061  0.697500811424862 4.99431818181818  0.756572541382668 4.99431818181818  L 2.71957156767283 4.99431818181818  L 2.71957156767283 4.51136363636364  L 0.756572541382668 4.51136363636364  C 0.697500811424862 4.51136363636364  0.646381045115222 4.49431818181818  0.603213242453749 4.46022727272727  C 0.560045439792275 4.42613636363636  0.538461538461539 4.38257575757576  0.538461538461539 4.32954545454546  L 0.538461538461539 3.73863636363636  C 0.538461538461539 3.68939393939394  0.560045439792275 3.6467803030303  0.603213242453749 3.61079545454545  C 0.646381045115222 3.57481060606061  0.697500811424862 3.55681818181818  0.756572541382668 3.55681818181818  L 2.21518987341772 3.55681818181818  L 0.0272638753651412 0.272727272727272  C -0.00908795845504707 0.212121212121212  -0.00908795845504707 0.15151515151515  0.0272638753651412 0.0909090909090908  C 0.0727036676403765 0.0303030303030303  0.136319376825706 0  0.21811100292113 0  L 1.54040895813048 0  C 1.62674456345342 0  1.69263226225252 0.0340909090909092  1.73807205452775 0.102272727272728  L 3.20350535540409 2.51704545454545  C 3.28984096072704 2.66098484848485  3.4170723790977 2.89772727272727  3.58519961051607 3.22727272727273  C 3.6306394027913 3.13636363636364  3.69993508601104 3.00757575757576  3.79308666017527 2.84090909090909  C 3.8862382343395 2.67424242424242  3.94871794871795 2.55871212121212  3.98052580331061 2.49431818181818  L 5.2823758519961 0.107954545454546  C 5.31872768581629 0.0359848484848477  5.38461538461539 0  5.48003894839338 0  L 6.78188899707887 0  C 6.85913664394677 0  6.92048036351834 0.0303030303030303  6.96592015579357 0.0909090909090908  C 7.00681596884129 0.143939393939394  7.00908795845505 0.202651515151515  6.97273612463486 0.267045454545454  L 4.83933787731256 3.55681818181818  L 6.3047711781889 3.55681818181818  C 6.36384290814671 3.55681818181818  6.41496267445635 3.57481060606061  6.45813047711782 3.61079545454545  C 6.50129827977929 3.6467803030303  6.52288218111003 3.68939393939394  6.52288218111003 3.73863636363636  L 6.52288218111003 4.32954545454546  C 6.52288218111003 4.38257575757576  6.50129827977929 4.42613636363636  6.45813047711782 4.46022727272727  C 6.41496267445635 4.49431818181818  6.36384290814671 4.51136363636364  6.3047711781889 4.51136363636364  L 4.32814021421616 4.51136363636364  L 4.32814021421616 4.99431818181818  L 6.3047711781889 4.99431818181818  C 6.36384290814671 4.99431818181818  6.41496267445635 5.01231060606061  6.45813047711782 5.04829545454546  C 6.50129827977929 5.0842803030303  6.52288218111003 5.12689393939394  6.52288218111003 5.17613636363636  L 6.52288218111003 5.76136363636364  C 6.52288218111003 5.81439393939394  6.50129827977929 5.85795454545455  6.45813047711782 5.89204545454546  C 6.41496267445635 5.92613636363636  6.36384290814671 5.94318181818182  6.3047711781889 5.94318181818182  L 4.32814021421616 5.94318181818182  L 4.32814021421616 7.81818181818182  C 4.32814021421616 7.86742424242424  4.30655631288543 7.91003787878788  4.26338851022395 7.94602272727273  Z " fill-rule="nonzero" fill="#fa2d2d" stroke="none" fill-opacity="0.996078431372549" transform="matrix(1 0 0 1 1922 2893 )" />
  </g>
</svg>