<?xml version="1.0" encoding="utf-8"?>
<svg version="1.1" xmlns:xlink="http://www.w3.org/1999/xlink" width="8px" height="7px" xmlns="http://www.w3.org/2000/svg">
  <g transform="matrix(1 0 0 1 -1944 -2677 )">
    <path d="M 7.91983967935872 0.721649484536082  C 7.97327989311957 0.801832760595645  8 0.894043528064146  8 0.998281786941581  C 8 1.10252004581901  7.97327989311957 1.19473081328751  7.91983967935872 1.27491408934708  L 4.18436873747495 6.87972508591065  C 4.1309285237141 6.95990836197022  4.06947227788911 7  4 7  C 3.93052772211089 7  3.86907147628591 6.95990836197022  3.81563126252505 6.87972508591065  L 0.0801603206412826 1.27491408934708  C 0.0267201068804276 1.19473081328751  0 1.10252004581901  0 0.998281786941581  C 0 0.894043528064146  0.0267201068804276 0.801832760595645  0.0801603206412826 0.721649484536082  L 0.480961923847695 0.120274914089347  C 0.534402137608551 0.0400916380297814  0.595858383433534 0  0.665330661322645 0  C 0.734802939211757 0  0.79625918503674 0.0400916380297814  0.849699398797595 0.120274914089347  L 4 4.84707903780069  L 7.1503006012024 0.120274914089347  C 7.20374081496326 0.0400916380297814  7.26519706078824 0  7.33466933867735 0  C 7.40414161656647 0  7.46559786239145 0.0400916380297814  7.51903807615231 0.120274914089347  L 7.91983967935872 0.721649484536082  Z " fill-rule="nonzero" fill="#333333" stroke="none" transform="matrix(1 0 0 1 1944 2677 )" />
  </g>
</svg>