<?xml version="1.0" encoding="utf-8"?>
<svg version="1.1" xmlns:xlink="http://www.w3.org/1999/xlink" width="125px" height="91px" xmlns="http://www.w3.org/2000/svg">
  <g transform="matrix(1 0 0 1 -2390 -1779 )">
    <path d="M 2390 1779  L 2515 1779  L 2515 1870  L 2390 1870  L 2390 1779  " fill-rule="nonzero" fill="#cccccc" stroke="none" />
    <path d="M 2396 1785  L 2509 1785  L 2509 1864  L 2396 1864  L 2396 1785  " fill-rule="nonzero" fill="#ffffff" stroke="none" />
    <path d="M 2461.825 1806.3  C 2458.003 1806.3  2455 1803.297  2455 1799.475  C 2455 1795.653  2458.003 1792.65  2461.825 1792.65  C 2465.647 1792.65  2468.65 1795.653  2468.65 1799.475  C 2468.65 1803.297  2465.647 1806.3  2461.825 1806.3  " fill-rule="nonzero" fill="#cccccc" stroke="none" />
    <path d="M 2399 1862  L 2399 1821.3  L 2426 1802.8  L 2463.8 1829.6768  L 2485.4 1813.9  L 2507 1829.6768  L 2507 1862  L 2399 1862  " fill-rule="nonzero" fill="#169bd5" stroke="none" />
  </g>
</svg>