<?xml version="1.0" encoding="utf-8"?>
<svg version="1.1" xmlns:xlink="http://www.w3.org/1999/xlink" width="164px" height="93px" xmlns="http://www.w3.org/2000/svg">
  <g transform="matrix(1 0 0 1 -600 -759 )">
    <path d="M 600 759  L 764 759  L 764 852  L 600 852  L 600 759  " fill-rule="nonzero" fill="#cccccc" stroke="none" />
    <path d="M 607 766  L 757 766  L 757 845  L 607 845  L 607 766  " fill-rule="nonzero" fill="#ffffff" stroke="none" />
    <path d="M 692.255 786.9  C 688.349 786.9  685.28 783.831  685.28 779.925  C 685.28 776.019  688.349 772.95  692.255 772.95  C 696.161 772.95  699.23 776.019  699.23 779.925  C 699.23 783.831  696.161 786.9  692.255 786.9  " fill-rule="nonzero" fill="#cccccc" stroke="none" />
    <path d="M 610 843  L 610 802.3  L 646.25 783.8  L 697 817.821951219512  L 726 794.9  L 755 817.821951219512  L 755 843  L 610 843  " fill-rule="nonzero" fill="#169bd5" stroke="none" />
  </g>
</svg>