<?xml version="1.0" encoding="utf-8"?>
<svg version="1.1" xmlns:xlink="http://www.w3.org/1999/xlink" width="43px" height="44px" xmlns="http://www.w3.org/2000/svg">
  <defs>
    <filter x="853px" y="277px" width="43px" height="44px" filterUnits="userSpaceOnUse" id="filter1">
      <feOffset dx="2" dy="2" in="SourceAlpha" result="shadowOffsetInner" />
      <feGaussianBlur stdDeviation="3" in="shadowOffsetInner" result="shadowGaussian" />
      <feComposite in2="shadowGaussian" operator="atop" in="SourceAlpha" result="shadowComposite" />
      <feColorMatrix type="matrix" values="0 0 0 0 0  0 0 0 0 0  0 0 0 0 0  0 0 0 0.349019607843137 0  " in="shadowComposite" />
    </filter>
    <g id="widget2">
      <path d="M 872.5 281  C 881.18 281  888 288.04  888 297  C 888 305.96  881.18 313  872.5 313  C 863.82 313  857 305.96  857 297  C 857 288.04  863.82 281  872.5 281  Z " fill-rule="nonzero" fill="#ff0000" stroke="none" />
      <path d="M 872.5 281.5  C 880.9 281.5  887.5 288.32  887.5 297  C 887.5 305.68  880.9 312.5  872.5 312.5  C 864.1 312.5  857.5 305.68  857.5 297  C 857.5 288.32  864.1 281.5  872.5 281.5  Z " stroke-width="1" stroke="#ff0000" fill="none" />
    </g>
  </defs>
  <g transform="matrix(1 0 0 1 -853 -277 )">
    <use xlink:href="#widget2" filter="url(#filter1)" />
    <use xlink:href="#widget2" />
  </g>
</svg>