<?xml version="1.0" encoding="utf-8"?>
<svg version="1.1" xmlns:xlink="http://www.w3.org/1999/xlink" width="40px" height="50px" xmlns="http://www.w3.org/2000/svg">
  <defs>
    <filter x="370px" y="130px" width="40px" height="50px" filterUnits="userSpaceOnUse" id="filter5">
      <feOffset dx="1" dy="1" in="SourceAlpha" result="shadowOffsetInner" />
      <feGaussianBlur stdDeviation="2.5" in="shadowOffsetInner" result="shadowGaussian" />
      <feComposite in2="shadowGaussian" operator="atop" in="SourceAlpha" result="shadowComposite" />
      <feColorMatrix type="matrix" values="0 0 0 0 0  0 0 0 0 0  0 0 0 0 0  0 0 0 0.698039215686274 0  " in="shadowComposite" />
    </filter>
    <g id="widget6">
      <path d="M 389 173.036928468354  C 383.2 163.40734059591  374.5 157.629587872444  374.5 148  C 374.5 142.985714285714  377.4 134.5  389 134.5  C 400.6 134.5  403.5 142.985714285714  403.5 148  C 403.5 157.629587872444  394.8 163.40734059591  389 173.036928468354  Z " fill-rule="nonzero" fill="#fa2d2d" stroke="none" fill-opacity="0.996078431372549" />
      <path d="M 389 174  C 383 164  374 158  374 148  C 374 142.8  377 134  389 134  C 401 134  404 142.8  404 148  C 404 158  395 164  389 174  Z M 389 172.073856936707  C 394.6 162.81468119182  403 157.259175744887  403 148  C 403 143.171428571429  400.2 135  389 135  C 377.8 135  375 143.171428571429  375 148  C 375 157.259175744887  383.4 162.81468119182  389 172.073856936707  Z " fill-rule="nonzero" fill="#ffffff" stroke="none" />
    </g>
  </defs>
  <g transform="matrix(1 0 0 1 -370 -130 )">
    <use xlink:href="#widget6" filter="url(#filter5)" />
    <use xlink:href="#widget6" />
  </g>
</svg>